<svg xmlns="http://www.w3.org/2000/svg" xmlns:xlink="http://www.w3.org/1999/xlink" width="42" height="51" viewBox="0 0 42 51"><defs><path id="ivm0a" d="M255 1146a4 4 0 0 1 4-4h34a4 4 0 0 1 4 4v23a4 4 0 0 1-4 4h-34a4 4 0 0 1-4-4z"/><path id="ivm0b" d="M275 1122h2c8.284 0 15 6.715 15 15v8h-32v-8c0-8.285 6.716-15 15-15z"/><path id="ivm0c" d="M276 1127c6.075 0 11 4.925 11 11v7h-22v-7c0-6.075 4.925-11 11-11z"/><path id="ivm0d" d="M268.575 1155.354a1.5 1.5 0 0 1 2.122 0l3.889 3.888 6.717-6.717a1.5 1.5 0 0 1 2.122 2.121l-7.778 7.778a1.5 1.5 0 0 1-2.122 0l-4.95-4.949a1.5 1.5 0 0 1 0-2.121z"/><clipPath id="ivm0e"><use fill="#fff" xlink:href="#ivm0a"/></clipPath><clipPath id="ivm0f"><use fill="#fff" xlink:href="#ivm0b"/></clipPath><clipPath id="ivm0g"><use fill="#fff" xlink:href="#ivm0c"/></clipPath><clipPath id="ivm0h"><use fill="#fff" xlink:href="#ivm0d"/></clipPath></defs><g><g transform="translate(-255 -1122)"><g><use fill="#fff" fill-opacity="0" stroke="#267df4" stroke-miterlimit="50" stroke-width="6" clip-path="url(&quot;#ivm0e&quot;)" xlink:href="#ivm0a"/></g><g><use fill="#fff" fill-opacity="0" stroke="#267df4" stroke-miterlimit="50" stroke-width="6" clip-path="url(&quot;#ivm0f&quot;)" xlink:href="#ivm0b"/></g><g><use fill="#fff" fill-opacity="0" stroke="#267df4" stroke-miterlimit="50" stroke-width="6" clip-path="url(&quot;#ivm0g&quot;)" xlink:href="#ivm0c"/></g><g><use fill="#fff" fill-opacity="0" stroke="#267df4" stroke-miterlimit="50" stroke-width="6" clip-path="url(&quot;#ivm0h&quot;)" xlink:href="#ivm0d"/></g></g></g></svg>